<svg width="132" height="36" viewBox="0 0 132 36" fill="none" xmlns="http://www.w3.org/2000/svg">
<path d="M61.976 23.024H55.688L54.68 26H50.384L56.48 9.152H61.232L67.328 26H62.984L61.976 23.024ZM60.92 19.856L58.832 13.688L56.768 19.856H60.92ZM77.3433 12.464C78.9113 12.464 80.1593 12.976 81.0873 14C82.0313 15.008 82.5033 16.4 82.5033 18.176V26H78.4233V18.728C78.4233 17.832 78.1913 17.136 77.7273 16.64C77.2633 16.144 76.6393 15.896 75.8553 15.896C75.0713 15.896 74.4473 16.144 73.9833 16.64C73.5193 17.136 73.2873 17.832 73.2873 18.728V26H69.1833V12.608H73.2873V14.384C73.7033 13.792 74.2633 13.328 74.9673 12.992C75.6713 12.64 76.4633 12.464 77.3433 12.464ZM92.8192 22.52V26H90.7312C89.2432 26 88.0832 25.64 87.2512 24.92C86.4192 24.184 86.0032 22.992 86.0032 21.344V16.016H84.3712V12.608H86.0032V9.344H90.1072V12.608H92.7952V16.016H90.1072V21.392C90.1072 21.792 90.2032 22.08 90.3952 22.256C90.5872 22.432 90.9072 22.52 91.3552 22.52H92.8192ZM103.337 12.464C104.873 12.464 106.105 12.976 107.033 14C107.961 15.008 108.425 16.4 108.425 18.176V26H104.345V18.728C104.345 17.832 104.113 17.136 103.649 16.64C103.185 16.144 102.561 15.896 101.777 15.896C100.993 15.896 100.369 16.144 99.9052 16.64C99.4412 17.136 99.2092 17.832 99.2092 18.728V26H95.1052V8.24H99.2092V14.408C99.6252 13.816 100.193 13.344 100.913 12.992C101.633 12.64 102.441 12.464 103.337 12.464ZM113.341 11.216C112.621 11.216 112.029 11.008 111.565 10.592C111.117 10.16 110.893 9.632 110.893 9.008C110.893 8.368 111.117 7.84 111.565 7.424C112.029 6.992 112.621 6.776 113.341 6.776C114.045 6.776 114.621 6.992 115.069 7.424C115.533 7.84 115.765 8.368 115.765 9.008C115.765 9.632 115.533 10.16 115.069 10.592C114.621 11.008 114.045 11.216 113.341 11.216ZM115.381 12.608V26H111.277V12.608H115.381ZM122.459 8.24V26H118.355V8.24H122.459ZM129.537 8.24V26H125.433V8.24H129.537Z" fill="white"/>
<circle cx="16" cy="18" r="16" fill="white"/>
</svg>
