<svg width="6" height="20" viewBox="0 0 6 20" fill="none" xmlns="http://www.w3.org/2000/svg">
<path d="M2.99935 5.33268C4.28268 5.33268 5.33268 4.28268 5.33268 2.99935C5.33268 1.71602 4.28268 0.666016 2.99935 0.666016C1.71602 0.666016 0.666016 1.71602 0.666016 2.99935C0.666016 4.28268 1.71602 5.33268 2.99935 5.33268ZM2.99935 7.66601C1.71602 7.66601 0.666016 8.71601 0.666016 9.99935C0.666016 11.2827 1.71602 12.3327 2.99935 12.3327C4.28268 12.3327 5.33268 11.2827 5.33268 9.99935C5.33268 8.71601 4.28268 7.66601 2.99935 7.66601ZM2.99935 14.666C1.71602 14.666 0.666016 15.716 0.666016 16.9993C0.666016 18.2827 1.71602 19.3327 2.99935 19.3327C4.28268 19.3327 5.33268 18.2827 5.33268 16.9993C5.33268 15.716 4.28268 14.666 2.99935 14.666Z" fill="#B7BFC5"/>
</svg>
